<svg xmlns="http://www.w3.org/2000/svg" width="348" height="328" viewBox="0 0 348 328" role="img" aria-label="1,723 GitHub contributions in the last 35 days, active on 28 of them">
<style>text{font-family:-apple-system,BlinkMacSystemFont,"Segoe UI",Helvetica,Arial,sans-serif;}</style>
<rect width="348" height="328" rx="12" fill="#0d1117" stroke="#3d444d"/>
<text x="36" y="29" text-anchor="middle" font-size="11" font-weight="600" fill="#9198a1">S</text>
<text x="82" y="29" text-anchor="middle" font-size="11" font-weight="600" fill="#9198a1">M</text>
<text x="128" y="29" text-anchor="middle" font-size="11" font-weight="600" fill="#9198a1">T</text>
<text x="174" y="29" text-anchor="middle" font-size="11" font-weight="600" fill="#9198a1">W</text>
<text x="220" y="29" text-anchor="middle" font-size="11" font-weight="600" fill="#9198a1">T</text>
<text x="266" y="29" text-anchor="middle" font-size="11" font-weight="600" fill="#9198a1">F</text>
<text x="312" y="29" text-anchor="middle" font-size="11" font-weight="600" fill="#9198a1">S</text>
<rect x="16" y="38" width="40" height="40" rx="8" fill="#21262d" stroke="rgba(255,255,255,0.09)"><title>2026-07-19: 0 contributions</title></rect>
<rect x="62" y="38" width="40" height="40" rx="8" fill="#033a16"><title>2026-07-20: 1 contribution</title></rect>
<rect x="108" y="38" width="40" height="40" rx="8" fill="#21262d" stroke="rgba(255,255,255,0.09)"><title>2026-07-21: 0 contributions</title></rect>
<rect x="154" y="38" width="40" height="40" rx="8" fill="#21262d" stroke="rgba(255,255,255,0.09)"><title>2026-07-22: 0 contributions</title></rect>
<rect x="200" y="38" width="40" height="40" rx="8" fill="#21262d" stroke="rgba(255,255,255,0.09)"><title>2026-07-23: 0 contributions</title></rect>
<rect x="246" y="38" width="40" height="40" rx="8" fill="#21262d" stroke="rgba(255,255,255,0.09)"><title>2026-07-24: 0 contributions</title></rect>
<rect x="292" y="38" width="40" height="40" rx="8" fill="#21262d" stroke="rgba(255,255,255,0.09)"><title>2026-07-25: 0 contributions</title></rect>
<rect x="16" y="84" width="40" height="40" rx="8" fill="#033a16"><title>2026-07-26: 4 contributions</title></rect>
<rect x="62" y="84" width="40" height="40" rx="8" fill="#033a16"><title>2026-07-27: 3 contributions</title></rect>
<rect x="108" y="84" width="40" height="40" rx="8" fill="#196c2e"><title>2026-07-28: 18 contributions</title></rect>
<rect x="154" y="84" width="40" height="40" rx="8" fill="#2ea043"><title>2026-07-29: 45 contributions</title></rect>
<rect x="200" y="84" width="40" height="40" rx="8" fill="#2ea043"><title>2026-07-30: 78 contributions</title></rect>
<rect x="246" y="84" width="40" height="40" rx="8" fill="#56d364"><title>2026-07-31: 214 contributions</title></rect>
<rect x="292" y="84" width="40" height="40" rx="8" fill="#56d364"><title>2026-08-01: 146 contributions</title></rect>
<rect x="16" y="130" width="40" height="40" rx="8" fill="#56d364"><title>2026-08-02: 84 contributions</title></rect>
<rect x="62" y="130" width="40" height="40" rx="8" fill="#2ea043"><title>2026-08-03: 45 contributions</title></rect>
<rect x="108" y="130" width="40" height="40" rx="8" fill="#196c2e"><title>2026-08-04: 9 contributions</title></rect>
<rect x="154" y="130" width="40" height="40" rx="8" fill="#196c2e"><title>2026-08-05: 10 contributions</title></rect>
<rect x="200" y="130" width="40" height="40" rx="8" fill="#033a16"><title>2026-08-06: 4 contributions</title></rect>
<rect x="246" y="130" width="40" height="40" rx="8" fill="#033a16"><title>2026-08-07: 1 contribution</title></rect>
<rect x="292" y="130" width="40" height="40" rx="8" fill="#196c2e"><title>2026-08-08: 11 contributions</title></rect>
<rect x="16" y="176" width="40" height="40" rx="8" fill="#21262d" stroke="rgba(255,255,255,0.09)"><title>2026-08-09: 0 contributions</title></rect>
<rect x="62" y="176" width="40" height="40" rx="8" fill="#2ea043"><title>2026-08-10: 60 contributions</title></rect>
<rect x="108" y="176" width="40" height="40" rx="8" fill="#2ea043"><title>2026-08-11: 62 contributions</title></rect>
<rect x="154" y="176" width="40" height="40" rx="8" fill="#196c2e"><title>2026-08-12: 5 contributions</title></rect>
<rect x="200" y="176" width="40" height="40" rx="8" fill="#033a16"><title>2026-08-13: 3 contributions</title></rect>
<rect x="246" y="176" width="40" height="40" rx="8" fill="#033a16"><title>2026-08-14: 1 contribution</title></rect>
<rect x="292" y="176" width="40" height="40" rx="8" fill="#196c2e"><title>2026-08-15: 23 contributions</title></rect>
<rect x="16" y="222" width="40" height="40" rx="8" fill="#56d364"><title>2026-08-16: 125 contributions</title></rect>
<rect x="62" y="222" width="40" height="40" rx="8" fill="#2ea043"><title>2026-08-17: 79 contributions</title></rect>
<rect x="108" y="222" width="40" height="40" rx="8" fill="#2ea043"><title>2026-08-18: 74 contributions</title></rect>
<rect x="154" y="222" width="40" height="40" rx="8" fill="#56d364"><title>2026-08-19: 133 contributions</title></rect>
<rect x="200" y="222" width="40" height="40" rx="8" fill="#56d364"><title>2026-08-20: 222 contributions</title></rect>
<rect x="246" y="222" width="40" height="40" rx="8" fill="#56d364"><title>2026-08-21: 205 contributions</title></rect>
<rect x="292" y="222" width="40" height="40" rx="8" fill="#2ea043"><title>2026-08-22: 58 contributions</title></rect>
<text x="16" y="282" font-size="13" font-weight="600" fill="#f0f6fc">1,723 contributions in 35 days</text>
<text x="16" y="301" font-size="11" fill="#9198a1">active 28 of 35 days</text>
<text x="221" y="301" text-anchor="end" font-size="11" fill="#9198a1">Less</text>
<rect x="227" y="292" width="11" height="11" rx="3" fill="#21262d"/>
<rect x="242" y="292" width="11" height="11" rx="3" fill="#033a16"/>
<rect x="257" y="292" width="11" height="11" rx="3" fill="#196c2e"/>
<rect x="272" y="292" width="11" height="11" rx="3" fill="#2ea043"/>
<rect x="287" y="292" width="11" height="11" rx="3" fill="#56d364"/>
<text x="306" y="301" font-size="11" fill="#9198a1">More</text>
</svg>
