<svg xmlns="http://www.w3.org/2000/svg" width="628" height="84" viewBox="0 0 628 84" role="img" aria-label="1,774 GitHub contributions in the last 30 days, active on 29 of them">
<style>text{font-family:-apple-system,BlinkMacSystemFont,"Segoe UI",Helvetica,Arial,sans-serif;}</style>
<rect width="628" height="84" rx="12" fill="#0d1117" stroke="#3d444d"/>
<rect x="16" y="16" width="16" height="16" rx="4" fill="#033a16"><title>2026-07-26: 4 contributions</title></rect>
<rect x="36" y="16" width="16" height="16" rx="4" fill="#033a16"><title>2026-07-27: 3 contributions</title></rect>
<rect x="56" y="16" width="16" height="16" rx="4" fill="#196c2e"><title>2026-07-28: 18 contributions</title></rect>
<rect x="76" y="16" width="16" height="16" rx="4" fill="#2ea043"><title>2026-07-29: 45 contributions</title></rect>
<rect x="96" y="16" width="16" height="16" rx="4" fill="#2ea043"><title>2026-07-30: 78 contributions</title></rect>
<rect x="116" y="16" width="16" height="16" rx="4" fill="#56d364"><title>2026-07-31: 214 contributions</title></rect>
<rect x="136" y="16" width="16" height="16" rx="4" fill="#56d364"><title>2026-08-01: 146 contributions</title></rect>
<rect x="156" y="16" width="16" height="16" rx="4" fill="#56d364"><title>2026-08-02: 84 contributions</title></rect>
<rect x="176" y="16" width="16" height="16" rx="4" fill="#2ea043"><title>2026-08-03: 45 contributions</title></rect>
<rect x="196" y="16" width="16" height="16" rx="4" fill="#196c2e"><title>2026-08-04: 9 contributions</title></rect>
<rect x="216" y="16" width="16" height="16" rx="4" fill="#196c2e"><title>2026-08-05: 10 contributions</title></rect>
<rect x="236" y="16" width="16" height="16" rx="4" fill="#033a16"><title>2026-08-06: 4 contributions</title></rect>
<rect x="256" y="16" width="16" height="16" rx="4" fill="#033a16"><title>2026-08-07: 1 contribution</title></rect>
<rect x="276" y="16" width="16" height="16" rx="4" fill="#196c2e"><title>2026-08-08: 11 contributions</title></rect>
<rect x="296" y="16" width="16" height="16" rx="4" fill="#21262d" stroke="rgba(255,255,255,0.09)"><title>2026-08-09: 0 contributions</title></rect>
<rect x="316" y="16" width="16" height="16" rx="4" fill="#2ea043"><title>2026-08-10: 60 contributions</title></rect>
<rect x="336" y="16" width="16" height="16" rx="4" fill="#2ea043"><title>2026-08-11: 62 contributions</title></rect>
<rect x="356" y="16" width="16" height="16" rx="4" fill="#196c2e"><title>2026-08-12: 5 contributions</title></rect>
<rect x="376" y="16" width="16" height="16" rx="4" fill="#033a16"><title>2026-08-13: 3 contributions</title></rect>
<rect x="396" y="16" width="16" height="16" rx="4" fill="#033a16"><title>2026-08-14: 1 contribution</title></rect>
<rect x="416" y="16" width="16" height="16" rx="4" fill="#196c2e"><title>2026-08-15: 23 contributions</title></rect>
<rect x="436" y="16" width="16" height="16" rx="4" fill="#56d364"><title>2026-08-16: 125 contributions</title></rect>
<rect x="456" y="16" width="16" height="16" rx="4" fill="#56d364"><title>2026-08-17: 79 contributions</title></rect>
<rect x="476" y="16" width="16" height="16" rx="4" fill="#2ea043"><title>2026-08-18: 74 contributions</title></rect>
<rect x="496" y="16" width="16" height="16" rx="4" fill="#56d364"><title>2026-08-19: 133 contributions</title></rect>
<rect x="516" y="16" width="16" height="16" rx="4" fill="#56d364"><title>2026-08-20: 222 contributions</title></rect>
<rect x="536" y="16" width="16" height="16" rx="4" fill="#56d364"><title>2026-08-21: 206 contributions</title></rect>
<rect x="556" y="16" width="16" height="16" rx="4" fill="#2ea043"><title>2026-08-22: 66 contributions</title></rect>
<rect x="576" y="16" width="16" height="16" rx="4" fill="#196c2e"><title>2026-08-23: 40 contributions</title></rect>
<rect x="596" y="16" width="16" height="16" rx="4" fill="#033a16"><title>2026-08-24: 3 contributions</title></rect>
<text x="16" y="46" font-size="10" fill="#9198a1">Jul 26</text>
<text x="156" y="46" font-size="10" fill="#9198a1">Aug 2</text>
<text x="296" y="46" font-size="10" fill="#9198a1">Aug 9</text>
<text x="436" y="46" font-size="10" fill="#9198a1">Aug 16</text>
<text x="576" y="46" font-size="10" fill="#9198a1">Aug 23</text>
<text x="16" y="68" font-size="12" font-weight="600" fill="#f0f6fc">1,774 contributions in the last 30 days<tspan font-weight="400" fill="#9198a1">&#160;&#183; active 29 of 30</tspan></text>
<text x="525" y="68" text-anchor="end" font-size="11" fill="#9198a1">Less</text>
<rect x="531" y="59" width="10" height="10" rx="3" fill="#21262d"/>
<rect x="545" y="59" width="10" height="10" rx="3" fill="#033a16"/>
<rect x="559" y="59" width="10" height="10" rx="3" fill="#196c2e"/>
<rect x="573" y="59" width="10" height="10" rx="3" fill="#2ea043"/>
<rect x="587" y="59" width="10" height="10" rx="3" fill="#56d364"/>
<text x="604" y="68" font-size="11" fill="#9198a1">More</text>
</svg>
